<?xml version="1.0" encoding="UTF-8"?>
<svg id="Layer_3" data-name="Layer 3" xmlns="http://www.w3.org/2000/svg" viewBox="0 0 153.7 34.84">
  <defs>
    <style>
      .cls-1 {
        fill: #ffd100;
      }

      .cls-2 {
        fill: #fab500;
      }

      .cls-3 {
        fill: #fdc500;
      }
    </style>
  </defs>
  <g id="Layer_7" data-name="Layer 7">
    <g>
      <path class="cls-2" d="M35.87,26.77c-3.87,0-6.34-1.92-6.34-6.82v-10.91h2.58c1.36,0,2.54,1.03,2.58,2.29v7.08c0,2.29.85,3.39,2.99,3.39h3.17v-12.76h2.58c1.36,0,2.54,1.03,2.58,2.29v15.45h-10.14Z"/>
      <path class="cls-2" d="M62.38,4.53c1.83,0,1.9,1.46,1.9,3.96,0,1.1,0,1.06,0,1.06h2.51c1.03,0,1.84.92,1.84,2.03v2.03s-4.36,0-4.36,0v6.16c-.04,1.11.33,2.36,1.88,2.36,1.73,0,2.36,1.11,2.36,2.32v2.32s-2.88,0-2.88,0c-4.87,0-6.53-2.54-6.53-7.12v-6.05h-2.11c-1.03,0-1.84-.96-1.84-2.03v-2.03h3.95v-5.01h3.27Z"/>
      <path class="cls-2" d="M108.29,23.3l4.76-6.05-3.65-4.61-2.41-3.47h4.9c1.09,0,1.79.54,2.22,1.25l1.99,2.88,1.99-2.88c.43-.71,1.24-1.23,2.22-1.25.67,0,4.9,0,4.9,0l-2.4,3.47-3.65,4.61,4.76,6.05,2.43,3.47h-4.82c-.99,0-1.77-.53-2.32-1.26l-3.1-4.2-3.1,4.2c-.52.7-1.26,1.25-2.19,1.25h-4.95"/>
      <path class="cls-2" d="M142.15,26.77s-6.78,0-8.81,0c-4.94,0-9-3.58-9-9s4.06-8.89,9-8.89,8.81,3.61,8.81,9.03c0,.92-.77,1.59-1.59,1.59h-11.1c.26,1.99,2.43,2.84,4.24,2.84,1.03,0,3.36,0,5.59,0,1.8,0,2.85.42,2.85,2.18v2.25ZM136.99,16.3s.58-3.88-3.61-3.88-3.83,3.88-3.83,3.88h7.45Z"/>
      <path class="cls-2" d="M150.16,26.77c-4.87,0-6.01-2.91-6.01-7.48V0h2.58c1.4,0,2.58,1,2.58,2.29v17.48c-.04,1.22.48,2.36,1.84,2.36,1.73,0,2.54,1.11,2.54,2.32v2.32h-3.54Z"/>
      <path class="cls-2" d="M104.68,24.51l-3.06,3.21-3.1-3.21,3.1-3.17,3.06,3.17ZM103.8,19.79h-2.18c-1.14,0-2.14-.93-2.18-2.1l-.59-17.69h2.76c1.51,0,2.88,1.17,2.77,2.7l-.59,17.09Z"/>
      <path class="cls-2" d="M54.02,26.77c-4.87,0-6.01-2.91-6.01-7.48V0h2.58c1.4,0,2.58,1,2.58,2.29v17.48c-.04,1.22.48,2.36,1.84,2.36,1.73,0,2.54,1.11,2.54,2.32v2.32h-3.54Z"/>
      <path class="cls-2" d="M88.49,8.89l-10.32.15v2.29s0,21.24,0,21.24c0,1.29,1.18,2.29,2.58,2.29h2.58v-8.07s3.21,0,5.16,0c4.39,0,8.37-3.24,8.37-8.96s-3.98-8.92-8.37-8.92ZM91.58,20.9l-8.28,1v-8.28l8.28,1v6.28Z"/>
      <polygon class="cls-2" points="71.26 4.43 71.15 0 75.61 .08 75.66 4.51 71.26 4.43"/>
      <path class="cls-2" d="M71.23,6.98h2.18c1.14,0,2.14.93,2.18,2.1l.59,17.69h-2.76c-1.51,0-2.88-1.17-2.77-2.7l.59-17.09Z"/>
      <path class="cls-2" d="M20.79,9c4.09,0,6.71,2.62,6.75,7.82v9.95h-2.58c-1.36,0-2.54-1.03-2.58-2.29v-7.08c0-2.25-1.36-3.43-2.88-3.43-1.62,0-2.91,1-2.91,3.5v9.29h-2.58c-1.36,0-2.54-1.03-2.58-2.29v-7.19c0-2.18-1.36-3.32-2.84-3.32-1.55,0-2.99.88-2.99,3.5v9.29h-2.58c-1.36,0-2.54-1.03-2.58-2.29v-15.3s20.35-.18,20.35-.18Z"/>
      <path class="cls-2" d="M26.58.67l.23,1.55c.17,1.13-.94,2.3-2.51,2.58L.44,9,.02,6.27"/>
      <path class="cls-3" d="M24.11,3.54c1.58-.28,2.68-1.45,2.51-2.58l-.13-.89-6.43.81-2.33,3.77,6.38-1.1Z"/>
      <path class="cls-1" d="M17.73,4.65c1.58-.28,2.68-1.45,2.51-2.58l-.18-1.19-6.7.84-1.94,4.04,6.3-1.11Z"/>
      <path class="cls-3" d="M11.1,5.81c1.58-.28,2.68-1.45,2.51-2.58l-.25-1.52-6.5.81-2.26,4.46,6.5-1.18Z"/>
      <path class="cls-1" d="M6.87,2.53l.31,1.88c.17,1.13-.94,2.3-2.51,2.58L.25,7.76.02,6.27c-.23-1.49,1.16-3.09,3.25-3.29l3.6-.45Z"/>
    </g>
  </g>
</svg>